# xmcd
#
# Track frame offsets:
# 150
# 14076
# 29999
# 43818
# 62512
# 73978
# 88624
# 101431
# 119299
# 136309
# 150561
# 164964
# 177368
# 191730
# 203252
# 216551
# 225866
# 237654
#
# Disc length: 3374 seconds
#
# Revision: 1
# Processed by: cddbd v1.5.1PL0 Copyright (c) Steve Scherf et al.
# Submitted via: Audio-CD-Archiv 4.00.527
#
DISCID=0d0d2c12
DTITLE=Varios - Pop Ballads
DYEAR=1999
DGENRE=country
TTITLE0=Varios - 1
TTITLE1=Varios - 2
TTITLE2=Varios - 3
TTITLE3=Varios - 4
TTITLE4=Varios - 5
TTITLE5=Varios - 6
TTITLE6=Varios - 7
TTITLE7=Varios - 8
TTITLE8=Varios - 9
TTITLE9=Varios - 10
TTITLE10=Varios - 11
TTITLE11=Varios - 12
TTITLE12=Varios - 13
TTITLE13=Varios - 14
TTITLE14=Varios - 15
TTITLE15=Varios - 16
TTITLE16=Varios - 17
TTITLE17=Varios - 18
EXTD=
EXTT0=
EXTT1=
EXTT2=
EXTT3=
EXTT4=
EXTT5=
EXTT6=
EXTT7=
EXTT8=
EXTT9=
EXTT10=
EXTT11=
EXTT12=
EXTT13=
EXTT14=
EXTT15=
EXTT16=
EXTT17=
PLAYORDER=
